<?xml version="1.0" encoding="iso-8859-1"?>
<!-- Generator: Adobe Illustrator 17.1.0, SVG Export Plug-In . SVG Version: 6.00 Build 0)  -->
<!DOCTYPE svg PUBLIC "-//W3C//DTD SVG 1.1//EN" "http://www.w3.org/Graphics/SVG/1.1/DTD/svg11.dtd">
<svg version="1.1" id="Capa_1" xmlns="http://www.w3.org/2000/svg" xmlns:xlink="http://www.w3.org/1999/xlink" x="0px" y="0px"
	 viewBox="0 0 260.366 260.366" style="enable-background:new 0 0 260.366 260.366;" xml:space="preserve">
<path d="M255.972,189.463l-47.347-47.348l41.082-41.082c3.675-3.675,5.186-8.989,3.993-14.047c-1.191-5.059-4.917-9.14-9.846-10.786
	L19.754,1.316c-5.393-1.804-11.341-0.401-15.36,3.62c-4.021,4.021-5.422,9.968-3.62,15.36l74.885,224.101
	c1.646,4.929,5.728,8.654,10.786,9.846c5.053,1.193,10.371-0.317,14.047-3.993l42.165-42.165l47.348,47.347
	c2.929,2.929,6.768,4.394,10.606,4.394s7.678-1.465,10.606-4.394l44.755-44.755C261.83,204.819,261.83,195.321,255.972,189.463z
	 M200.611,223.612l-47.348-47.347c-2.929-2.929-6.768-4.394-10.606-4.394s-7.678,1.465-10.606,4.394l-35.624,35.624L38.752,39.294
	l172.595,57.674l-34.541,34.541c-5.858,5.857-5.858,15.355,0,21.213l47.347,47.348L200.611,223.612z"/>
<g>
<path d="M 4 8 L 10 1 L 13 0 L 12 3 L 5 9 C 6 10 6 11 7 10 C 7 11 8 12 7 12 A 1.42 1.42 0 0 1 6 13 A 5 5 0 0 0 4 10 Q 3.5 9.9 3.5 10.5 T 2 11.8 T 1.2 11 T 2.5 9.5 T 3 9 A 5 5 90 0 0 0 7 A 1.42 1.42 0 0 1 1 6 C 1 5 2 6 3 6 C 2 7 3 7 4 8 M 10 1 L 10 3 L 12 3 L 10.2 2.8 L 10 1 " stroke ="black" stroke-width="2px" fill="none"></path>
</g>
</svg>
